<?xml version="1.0" encoding="UTF-8" standalone="no"?>

<!-- Created with PainterSVG V3.86 -->

<svg  xmlns="http://www.w3.org/2000/svg" xmlns:xlink="http://www.w3.org/1999/xlink" xmlns:psvg="http://www.paintersvg.com/namespace.html" id="svg"  width="793.6992" height="1122.5175" viewBox="0 0 793.6992 1122.5175">
<defs></defs>
<g psvg:layer="layer1">
<g id="group6" transform="matrix(0.6013,0,0,0.6013,152.3104,240.1564)">
<path id="path4" d=" M 374.5815,76.4212 C 197.0142,76.4212 51.7319,221.7035 51.7319,399.2705 51.7319,576.8383 251.0567,912.1738 400.2883,985.3588 550.2751,880.5057 697.431,576.8383 697.431,399.2705 697.431,221.7035 552.1487,76.4212 374.5815,76.4212 Z M 373.3676,91.7088 C 545.2505,91.7088 685.882,232.34 685.882,404.2231 685.882,576.1064 545.8909,896.6156 398.2515,971.5494 253.7971,900.7074 60.8531,576.1064 60.8531,404.2231 60.8531,232.34 201.4846,91.7088 373.3676,91.7088 Z" style="fill:#CCCCCC;fill-opacity:1;stroke:#000000;stroke-width:1;stroke-opacity:1;stroke-linecap:butt;stroke-miterlimit:4;stroke-dashoffset:0;" transform="matrix(1,0,0,1,0,0)"/>
<path d=" M 198.9086,390.9887 C 277.0493,398.2991 338.7397,464.5585 338.7397,544.5269 338.7397,547.7033 338.6424,550.8582 338.4506,553.9886 329.4564,556.146 320.0653,557.2939 310.4193,557.2939 244.1021,557.2939 189.8426,503.0345 189.8426,436.7173 189.8426,420.5555 193.0653,405.1097 198.8997,390.9909 Z M 205.1608,400.7413 C 200.0663,413.0694 197.2524,426.5561 197.2524,440.6681 197.2524,498.5741 244.63,545.9516 302.536,545.9516 310.9586,545.9516 319.1586,544.9493 327.012,543.0654 327.1794,540.332 327.2644,537.5774 327.2644,534.8038 327.2644,464.9781 273.3984,407.1226 205.1685,400.7394 Z" style="fill:#CCCCCC;fill-opacity:1;stroke:#000000;stroke-width:0.5961;stroke-opacity:1;stroke-linecap:butt;stroke-miterlimit:4;stroke-dashoffset:0;"/>
<path d=" M 560.2084,384.9479 C 482.0676,392.2583 420.3772,458.5176 420.3772,538.486 420.3772,541.6625 420.4746,544.8173 420.6664,547.9478 429.6605,550.1051 439.0516,551.2531 448.6977,551.2531 515.0148,551.2531 569.2743,496.9937 569.2743,430.6765 569.2743,414.5146 566.0516,399.0688 560.2173,384.9501 Z M 553.9562,394.7004 C 559.0505,407.0285 561.8645,420.5153 561.8645,434.6273 561.8645,492.5332 514.4869,539.9108 456.581,539.9108 448.1583,539.9108 439.9583,538.9084 432.1049,537.0245 431.9375,534.2911 431.8525,531.5365 431.8525,528.7629 431.8525,458.9373 485.7185,401.0818 553.9484,394.6985 Z" style="fill:#CCCCCC;fill-opacity:1;stroke:#000000;stroke-width:0.5961;stroke-opacity:1;stroke-linecap:butt;stroke-miterlimit:4;stroke-dashoffset:0;"/>
</g>
</g>
</svg>
