<?xml version="1.0" encoding="UTF-8" standalone="no"?>

<!-- Created with PainterSVG V3.86 -->

<svg  xmlns="http://www.w3.org/2000/svg" xmlns:xlink="http://www.w3.org/1999/xlink" xmlns:psvg="http://www.paintersvg.com/namespace.html" id="svg"  width="793.6992" height="1122.5175" viewBox="0 0 793.6992 1122.5175">
<defs></defs>
<g psvg:layer="layer1">
<g id="group8">
<g id="group6">
<path id="path4" d=" M 377.5463,286.1085 C 270.775,286.1085 183.4168,373.4667 183.4168,480.2378 183.4168,587.0093 303.2708,788.6465 393.0038,832.6527 483.1908,769.6045 571.6757,587.0093 571.6757,480.2378 571.6757,373.4667 484.3174,286.1085 377.5463,286.1085 Z M 376.8163,295.3009 C 480.1695,295.3009 564.7313,379.8624 564.7313,483.2158 564.7313,586.5692 480.5546,779.2914 391.779,824.349 304.9186,781.7517 188.9014,586.5692 188.9014,483.2158 188.9014,379.8624 273.4631,295.3009 376.8163,295.3009 Z" style="fill:#CCCCCC;fill-opacity:1;stroke:#000000;stroke-width:0.6013;stroke-opacity:1;stroke-linecap:butt;stroke-miterlimit:4;stroke-dashoffset:0;"/>
<path d=" M 271.9141,475.2579 C 318.9001,479.6537 355.9946,519.4954 355.9946,567.5804 355.9946,569.4904 355.9361,571.3875 355.8207,573.2698 350.4125,574.567 344.7657,575.2572 338.9655,575.2572 299.089,575.2572 266.4628,542.631 266.4628,502.7545 266.4628,493.0364 268.4006,483.7489 271.9088,475.2592 Z M 275.6736,481.1221 C 272.6103,488.535 270.9183,496.6446 270.9183,505.1301 270.9183,539.949 299.4064,568.4371 334.2253,568.4371 339.2898,568.4371 344.2205,567.8344 348.9427,566.7017 349.0434,565.058 349.0945,563.4017 349.0945,561.7339 349.0945,519.7477 316.7048,484.9592 275.6782,481.121 Z" style="fill:#CCCCCC;fill-opacity:1;stroke:#000000;stroke-width:0.3584;stroke-opacity:1;stroke-linecap:butt;stroke-miterlimit:4;stroke-dashoffset:0;"/>
<path d=" M 489.1637,471.6256 C 442.1776,476.0213 405.0832,515.863 405.0832,563.9481 405.0832,565.858 405.1418,567.7551 405.2571,569.6375 410.6653,570.9346 416.3121,571.6249 422.1123,571.6249 461.9888,571.6249 494.615,538.9987 494.615,499.1222 494.615,489.404 492.6772,480.1165 489.169,471.6269 Z M 485.4042,477.4897 C 488.4674,484.9026 490.1595,493.0123 490.1595,501.4978 490.1595,536.3167 461.6714,564.8048 426.8525,564.8048 421.788,564.8048 416.8573,564.202 412.1351,563.0692 412.0344,561.4257 411.9833,559.7693 411.9833,558.1016 411.9833,516.1154 444.3729,481.3269 485.3996,477.4886 Z" style="fill:#CCCCCC;fill-opacity:1;stroke:#000000;stroke-width:0.3584;stroke-opacity:1;stroke-linecap:butt;stroke-miterlimit:4;stroke-dashoffset:0;"/>
</g>
<path d=" M 320.2928,655.2227 C 322.7596,687.951 350.31,713.9666 383.6416,713.9666 416.3985,713.9666 443.5718,688.8404 446.8405,656.9094 446.9555,658.4568 447.0161,660.0526 447.0161,661.6616 447.0161,696.6022 418.4283,725.1901 383.4875,725.1901 348.5469,725.1901 319.959,696.6022 319.959,661.6616 319.959,659.4779 320.0707,657.3189 320.2886,655.1902 Z" style="fill:#CCCCCC;fill-opacity:1;stroke:#000000;stroke-width:1;stroke-opacity:1;stroke-linecap:butt;stroke-miterlimit:4;stroke-dashoffset:0;"/>
</g>
</g>
</svg>
