<?xml version="1.0" encoding="UTF-8" standalone="no"?>

<!-- Created with PainterSVG V3.86 -->

<svg  xmlns="http://www.w3.org/2000/svg" xmlns:xlink="http://www.w3.org/1999/xlink" xmlns:psvg="http://www.paintersvg.com/namespace.html" id="svg"  width="793.6992" height="1122.5175" viewBox="0 0 793.6992 1122.5175">
<defs></defs>
<g psvg:layer="layer1">
<g id="group16" transform="matrix(1,0,0,1,154.2653,257.8196)">
<path id="path2" d=" M 114.2483,69.6701 Q 84.1838,105.9638 58.8125,150.0786 L 405.1758,152.4273 Q 382.6573,107.1081 350.0417,68.4465 230.2196,60.2016 114.2483,69.6701 Z" style="fill:#D0D0D0;fill-opacity:1;stroke:#000000;stroke-width:2;stroke-opacity:1;stroke-linecap:butt;stroke-miterlimit:4;stroke-dashoffset:0;"/>
<path id="path3" d=" M 54.1399,127.9185 C 53.13,153.4962 46.4096,156.8797 41.9468,158.508 Q 8.4694,160.4332 7.8277,145.6732 4.3765,133.1584 19.6998,127.7046 C 32.9593,124.6985 37.0648,124.5184 54.1399,127.9185 Z" style="fill:#D0D0D0;fill-opacity:1;stroke:#000000;stroke-width:2;stroke-opacity:1;stroke-linecap:butt;stroke-miterlimit:4;stroke-dashoffset:0;"/>
<path d=" M 407.8942,127.4648 C 408.9041,153.0425 415.6245,156.4261 420.0872,158.0543 Q 453.5646,159.9795 454.2064,145.2195 457.6575,132.7047 442.3342,127.2509 C 429.0748,124.2448 424.9692,124.0647 407.8942,127.4648 Z" style="fill:#D0D0D0;fill-opacity:1;stroke:#000000;stroke-width:2;stroke-opacity:1;stroke-linecap:butt;stroke-miterlimit:4;stroke-dashoffset:0;"/>
<path id="path4" d=" M 201.1165,314.5309 C 122.0457,319.1344 133.85,297.9342 76.8052,368.5823 L 27.8022,365.0327 Q 7.131,362.8918 2.8912,349.7886 L 3.5829,219.9858 22.4167,197.4446 Q 20.72,178.1637 53.2489,159.3304 L 207.687,160.3184 409.8611,159.824 C 430.7509,176.5698 435.9879,171.2639 441.55,195.6333 L 459.9055,220.3695 461.858,346.1259 Q 459.8102,359.7413 446.1485,363.7981 L 384.7498,367.8346 C 370.7794,351.9656 362.4691,319.9259 317.2662,315.3318 L 201.1166,314.5309 Z" style="fill:#CCCCCC;fill-opacity:1;stroke:#000000;stroke-width:2;stroke-opacity:1;stroke-linecap:butt;stroke-miterlimit:4;stroke-dashoffset:0;" transform="matrix(1,0,0,1,0,0)"/>
<path id="path5" d=" M 372.9566,367.0341 Q 357.3492,331.7629 324.643,324.2426 L 136.5593,323.5035 C 122.6531,325.3031 108.1239,340.1748 85.8541,368.1273 Z" style="fill:#D0D0D0;fill-opacity:1;stroke:#000000;stroke-width:2;stroke-opacity:1;stroke-linecap:butt;stroke-miterlimit:4;stroke-dashoffset:0;"/>
<path id="path6" d=" M 76.3391,376.463 76.4357,393.1759 Q 76.4636,398.1876 70.9482,399.8295 L 16.0547,399.8605 Q 3.431,400.9662 4.2726,394.2704 4.0798,378.0453 4.3216,365.2318 C 23.5692,376.7681 48.1324,374.8475 76.3391,376.463 Z" style="fill:#D0D0D0;fill-opacity:1;stroke:#000000;stroke-width:2;stroke-opacity:1;stroke-linecap:butt;stroke-miterlimit:4;stroke-dashoffset:0;"/>
<path d=" M 388.0461,375.8629 387.9495,392.5758 Q 387.9216,397.5875 393.437,399.2294 L 448.3305,399.2604 Q 460.9542,400.3661 460.1125,393.6703 460.3054,377.4452 460.0636,364.6317 C 440.816,376.168 416.2527,374.2474 388.0461,375.8629 Z" style="fill:#D0D0D0;fill-opacity:1;stroke:#000000;stroke-width:2;stroke-opacity:1;stroke-linecap:butt;stroke-miterlimit:4;stroke-dashoffset:0;"/>
<path id="path7" d=" M 368.1869,270.563 C 366.3005,235.2113 377.0421,234.8971 384.4044,227.281 400.0934,214.7121 418.1971,211.5147 431.8294,204.1805 Q 438.4144,200.5264 453.7401,221.1669 457.5573,250.7747 425.1249,259.5165 373.3004,283.8435 368.1869,270.563 Z" style="fill:#FFFFFF;fill-opacity:1;stroke:#000000;stroke-width:2;stroke-opacity:1;stroke-linecap:butt;stroke-miterlimit:4;stroke-dashoffset:0;"/>
<path d=" M 96.1198,271.4501 C 98.0062,236.0984 87.2646,235.7842 79.9024,228.1681 64.2133,215.5992 46.1096,212.4018 32.4773,205.0676 Q 25.8923,201.4135 10.5667,222.054 6.7494,251.6618 39.1818,260.4036 91.0064,284.7306 96.1198,271.4501 Z" style="fill:#FFFFFF;fill-opacity:1;stroke:#000000;stroke-width:2;stroke-opacity:1;stroke-linecap:butt;stroke-miterlimit:4;stroke-dashoffset:0;"/>
<path id="path8" d=" M 112.7914,231.2446 Q 101.6795,235.4216 110.7782,260.411 C 117.6354,302.7406 345.4677,303.7772 352.7388,267.8532 Q 367.8335,239.5013 353.7711,232.3981 L 112.7914,231.2446 Z" style="fill:#FFFFFF;fill-opacity:1;stroke:#000000;stroke-width:2;stroke-opacity:1;stroke-linecap:butt;stroke-miterlimit:4;stroke-dashoffset:0;"/>
<g id="group15">
<path id="path9" d=" M 234.3061,248.0148 C 215.0687,248.0148 199.329,254.688 199.329,262.8441 199.329,271.0002 215.0687,277.6733 234.3061,277.6733 253.5435,277.6733 269.2832,271.0002 269.2832,262.8441 269.2832,254.688 253.5435,248.0148 234.3061,248.0148 Z" style="fill:#D0D0D0;fill-opacity:1;stroke:#000000;stroke-width:1;stroke-opacity:1;stroke-linecap:butt;stroke-miterlimit:4;stroke-dashoffset:0;"/>
<path id="path13" d=" M 180.3031,255.4431 288.1536,255.4431 C 292.5942,255.4431 296.2275,259.8838 296.2275,263.5171 L 296.2275,263.5171 C 296.2275,267.1503 291.7868,271.591 288.1536,271.591 L 180.3031,271.591 C 176.6698,271.591 172.2292,267.1503 172.2292,263.5171 L 172.2292,263.5171 C 172.2292,259.8838 176.6698,255.4431 180.3031,255.4431 Z" style="fill:#D0D0D0;fill-opacity:1;stroke:#000000;stroke-width:1;stroke-opacity:1;stroke-linecap:butt;stroke-miterlimit:4;stroke-dashoffset:0;"/>
</g>
<text id="text10" style="fill:#CCCCCC;fill-opacity:1;stroke:#040404;stroke-width:1;stroke-opacity:1;stroke-linecap:butt;stroke-miterlimit:4;stroke-dashoffset:0;" transform="matrix(0.2861,0,0,0.2861,143.9856,205.9382)" x="212.2435" y="212.2884" font-family="ComingSoon" font-size="40" font-style="normal" text-align="left">✓ icon-lab</text></g>
</g>
</svg>
