<?xml version="1.0" encoding="UTF-8" standalone="no"?>

<!-- Created by Amal Benny through PainterSVG V3.86 -->

<svg  xmlns="http://www.w3.org/2000/svg" xmlns:xlink="http://www.w3.org/1999/xlink" xmlns:psvg="http://www.paintersvg.com/namespace.html" id="svg"  width="793.6992" height="1122.5175" viewBox="0 0 793.6992 1122.5175">
<defs></defs>
<g psvg:layer="layer1">
<g id="group6">
<path id="path6" d=" M 437.5443,270.8844 C 376.7389,270.8844 326.989,332.8804 326.989,408.6533 326.989,484.4261 376.7389,546.4222 437.5443,546.4222 498.3497,546.4222 548.0995,484.4261 548.0995,408.6533 548.0995,332.8804 498.3497,270.8844 437.5443,270.8844 Z M 441.2273,309.5601 C 485.99,309.5601 522.6139,355.1992 522.6139,410.9802 522.6139,466.7615 485.99,512.4005 441.2273,512.4005 396.4647,512.4005 359.8408,466.7615 359.8408,410.9802 359.8408,355.1992 396.4647,309.5601 441.2273,309.5601 Z" style="fill:#D0D0D0;fill-opacity:1;stroke:#000000;stroke-width:1;stroke-opacity:1;stroke-linecap:butt;stroke-miterlimit:4;stroke-dashoffset:0;"/>
<path id="path2" d=" M 310.194,354.8969 560.9672,354.8969 C 590.2248,354.8969 614.1629,384.1546 614.1629,408.0927 L 614.1629,764.3145 C 614.1629,788.2526 584.9053,817.5101 560.9672,817.5101 L 310.194,817.5101 C 286.2559,817.5101 256.9983,788.2526 256.9983,764.3145 L 256.9983,408.0927 C 256.9983,384.1546 286.2559,354.8969 310.194,354.8969 Z" style="fill:#D0D0D0;fill-opacity:1;stroke:#000000;stroke-width:1;stroke-opacity:1;stroke-linecap:butt;stroke-miterlimit:4;stroke-dashoffset:0;"/>
<text id="text5" style="fill:#D0D0D0;fill-opacity:1;stroke:#000000;stroke-width:1;stroke-opacity:1;stroke-linecap:butt;stroke-miterlimit:4;stroke-dashoffset:0;" transform="matrix(0.7245,0,0,0.7245,43.1694,220.0124)" x="396.8496" y="568.0619" font-family="AndroidClock" font-size="80" font-style="normal" text-align="left">✓</text><text id="text6" style="fill:#CCCCCC;fill-opacity:1;stroke:#000000;stroke-width:1;stroke-opacity:1;stroke-linecap:butt;stroke-miterlimit:4;stroke-dashoffset:0;" transform="matrix(0.6822,0,0,0.6822,93.9945,292.1641)" x="421.9567" y="479.6405" font-family="ComingSoon" font-size="50" font-style="normal" text-align="left">icon-lab</text></g>
</g>
</svg>
