<?xml version="1.0" encoding="UTF-8" standalone="no"?>

<!-- Created with PainterSVG V3.86 -->

<svg  xmlns="http://www.w3.org/2000/svg" xmlns:xlink="http://www.w3.org/1999/xlink" xmlns:psvg="http://www.paintersvg.com/namespace.html" id="svg"  width="793.6992" height="1122.5175" viewBox="0 0 793.6992 1122.5175">
<defs></defs>
<g psvg:layer="layer1">
<g id="group5">
<path id="path4" d=" M 660.3578,547.6525 668.5215,547.6525 C 670.0182,547.6525 671.2428,549.1492 671.2428,550.3737 L 671.2428,647.5452 C 671.2428,648.7697 669.7461,650.2664 668.5215,650.2664 L 660.3578,650.2664 C 659.1332,650.2664 657.6365,648.7697 657.6365,647.5452 L 657.6365,550.3737 C 657.6365,549.1492 659.1332,547.6525 660.3578,547.6525 Z" style="fill:#CCCCCC;fill-opacity:1;stroke:#000000;stroke-width:1;stroke-opacity:1;stroke-linecap:butt;stroke-miterlimit:4;stroke-dashoffset:0;"/>
<path id="path1" d=" M 109.4959,430.9873 584.0298,430.9873 C 619.5245,430.9873 648.5657,466.4821 648.5657,495.5232 L 648.5657,689.1309 C 648.5657,718.172 613.0709,753.6667 584.0298,753.6667 L 109.4959,753.6667 C 80.4548,753.6667 44.9601,718.172 44.9601,689.1309 L 44.9601,495.5232 C 44.9601,466.4821 80.4548,430.9873 109.4959,430.9873 Z M 122.6607,440.9702 C 95.099,440.9702 61.4126,474.6567 61.4126,502.2184 L 61.4126,685.963 C 61.4126,713.5245 95.099,747.211 122.6607,747.211 L 573.0198,747.211 C 600.5815,747.211 634.2679,713.5245 634.2679,685.963 L 634.2679,502.2184 C 634.2679,474.6567 606.7063,440.9702 573.0198,440.9702 L 122.6607,440.9702 Z" style="fill:#CCCCCC;fill-opacity:1;stroke:#000000;stroke-width:1;stroke-opacity:1;stroke-linecap:butt;stroke-miterlimit:4;stroke-dashoffset:0;"/>
</g>
</g>
</svg>
