<?xml version="1.0" encoding="UTF-8" standalone="no"?>

<!-- Created with PainterSVG V3.86 -->

<svg  xmlns="http://www.w3.org/2000/svg" xmlns:xlink="http://www.w3.org/1999/xlink" xmlns:psvg="http://www.paintersvg.com/namespace.html" id="svg"  width="793.6992" height="1122.5175" viewBox="0 0 793.6992 1122.5175">
<defs></defs>
<g psvg:layer="layer1">
<g id="group14">
<path d=" M 297.9522,503.1079 C 295.1514,502.3676 292.2463,501.8724 289.2592,501.6481 262.764,499.6588 239.4584,519.709 237.469,546.2043 236.8486,554.4671 238.3717,562.4199 241.5653,569.5125 L 228.4595,584.9617 C 225.4274,580.7993 222.8569,576.2055 220.8509,571.2241 207.6673,538.4853 223.6671,500.9119 256.4062,487.728 274.0934,480.6056 293.1914,482.0008 309.1385,489.9733 L 297.9407,503.1628 Z" style="fill:#D0D0D0;fill-opacity:1;stroke:#000000;stroke-width:0;stroke-opacity:1;stroke-linecap:butt;stroke-linejoin:miter;stroke-miterlimit:4;stroke-dashoffset:0;"/>
<path id="path13" d=" M 347.1702,784.3074 291.0672,891.0297 273.4529,881.77 329.5559,775.0476 347.1702,784.3074 Z" style="fill:#D0D0D0;fill-opacity:1;stroke:#000000;stroke-width:0;stroke-opacity:1;stroke-linecap:butt;stroke-miterlimit:4;stroke-dashoffset:0;"/>
<path d=" M 496.9187,501.528 C 499.7195,500.7876 502.6246,500.2925 505.6117,500.0681 532.1069,498.0789 555.4125,518.129 557.4019,544.6244 558.0222,552.8871 556.4991,560.8398 553.3055,567.9325 L 566.4114,583.3817 C 569.4435,579.2194 572.014,574.6255 574.02,569.6442 587.2036,536.9053 571.2039,499.3319 538.4646,486.1481 520.7775,479.0256 501.6796,480.4208 485.7324,488.3933 L 496.9302,501.5829 Z" style="fill:#D0D0D0;fill-opacity:1;stroke:#000000;stroke-width:0;stroke-opacity:1;stroke-linecap:butt;stroke-linejoin:miter;stroke-miterlimit:4;stroke-dashoffset:0;"/>
<path d=" M 452.9601,783.3741 507.7244,887.5499 524.9185,878.5112 470.1542,774.3353 452.9601,783.3741 Z" style="fill:#D0D0D0;fill-opacity:1;stroke:#000000;stroke-width:0;stroke-opacity:1;stroke-linecap:butt;stroke-miterlimit:4;stroke-dashoffset:0;"/>
<path id="path1" d=" M 399.3864,484.9243 C 305.9897,484.9243 229.5741,561.3398 229.5741,654.7365 229.5741,748.1332 305.9897,824.5487 399.3864,824.5487 492.7831,824.5487 569.1987,748.1332 569.1987,654.7365 569.1987,561.3398 492.7831,484.9243 399.3864,484.9243 Z M 398.8053,518.0634 C 474.5349,518.0634 536.4954,580.0239 536.4954,655.7534 536.4954,731.4829 474.5349,793.4435 398.8053,793.4435 323.0757,793.4435 261.1152,731.4829 261.1152,655.7534 261.1152,580.0239 323.0757,518.0634 398.8053,518.0634 Z" style="fill:#CCCCCC;fill-opacity:1;stroke:#000000;stroke-width:1;stroke-opacity:1;stroke-linecap:butt;stroke-miterlimit:4;stroke-dashoffset:0;"/>
<path id="path10" d=" M 382.571,647.2855 500.5541,710.0557 495.4771,719.5984 377.494,656.8282 382.571,647.2855 Z" style="fill:#D0D0D0;fill-opacity:1;stroke:#000000;stroke-width:0;stroke-opacity:1;stroke-linecap:butt;stroke-miterlimit:4;stroke-dashoffset:0;"/>
<path id="path9" d=" M 375.6393,566.4785 398.8402,566.4785 398.8402,664.0277 375.6393,664.0277 375.6393,566.4785 Z" style="fill:#D0D0D0;fill-opacity:1;stroke:#000000;stroke-width:0;stroke-opacity:1;stroke-linecap:butt;stroke-miterlimit:4;stroke-dashoffset:0;"/>
</g>
</g>
</svg>
