<?xml version="1.0" encoding="UTF-8" standalone="no"?>

<!-- Created with PainterSVG V3.86 -->

<svg  xmlns="http://www.w3.org/2000/svg" xmlns:xlink="http://www.w3.org/1999/xlink" xmlns:psvg="http://www.paintersvg.com/namespace.html" id="svg"  width="793.6992" height="1122.5175" viewBox="0 0 793.6992 1122.5175">
<defs></defs>
<g psvg:layer="layer1">
<g id="group10">
<path id="path8" d=" M 496.8837,305.0549 556.8837,305.0549 556.8837,395.0549 496.8837,395.0549 496.8837,305.0549 Z" style="fill:#CCCCCC;fill-opacity:1;stroke:#000000;stroke-width:1;stroke-opacity:1;stroke-linecap:butt;stroke-miterlimit:4;stroke-dashoffset:0;"/>
<path d=" M 295.8425,689.3492 C 295.5426,688.1584 295.3818,686.9753 295.3818,685.8214 L 295.3818,578.5688 C 295.3818,568.4468 307.7532,556.0754 317.8753,556.0754 L 385.3558,556.0754 C 397.7272,556.0754 407.8492,568.4468 407.8492,578.5688 L 407.8492,685.8214 C 407.8492,686.9753 407.6885,688.1584 407.3886,689.3492 L 517.6723,689.3494 C 547.1677,689.3494 583.2175,659.4356 583.2175,634.9606 L 583.2175,471.7943 C 583.2175,447.3193 553.7221,417.4055 517.6723,417.4055 L 288.2641,417.4055 C 258.7687,417.4055 222.7189,447.3193 222.7189,471.7943 L 222.7189,634.9606 C 222.7189,659.4356 258.7687,689.3494 288.2641,689.3494 L 295.8644,689.3494 Z" style="fill:#CCCCCC;fill-opacity:1;stroke:#000000;stroke-width:1;stroke-opacity:1;stroke-linecap:butt;stroke-miterlimit:4;stroke-dashoffset:0;"/>
<path d=" M 149.3871,449.7532 649.3474,449.7788 400.4517,243.8498 149.3474,449.7788 Z" style="fill:#CCCCCC;fill-opacity:1;stroke:#000000;stroke-width:1;stroke-opacity:1;stroke-linecap:butt;stroke-miterlimit:4;stroke-dashoffset:0;"/>
</g>
<path id="path7" d=" M 313.4567,636.0201 330.5378,636.0201 C 332.0658,636.0201 333.316,637.3456 333.316,638.4301 L 333.316,645.6603 C 333.316,646.7448 331.788,648.0704 330.5378,648.0704 L 313.4567,648.0704 C 312.2065,648.0704 310.6785,646.7448 310.6785,645.6603 L 310.6785,638.4301 C 310.6785,637.3456 312.2065,636.0201 313.4567,636.0201 Z" style="fill:#CCCCCC;fill-opacity:1;stroke:#000000;stroke-width:1;stroke-opacity:1;stroke-linecap:butt;stroke-miterlimit:4;stroke-dashoffset:0;"/>
</g>
</svg>
