<?xml version="1.0" encoding="UTF-8" standalone="no"?>

<!-- Created with PainterSVG V3.86 -->

<svg  xmlns="http://www.w3.org/2000/svg" xmlns:xlink="http://www.w3.org/1999/xlink" xmlns:psvg="http://www.paintersvg.com/namespace.html" id="svg"  width="793.6992" height="1122.5175" viewBox="0 0 793.6992 1122.5175">
<defs></defs>
<g psvg:layer="layer1">
<path d=" M 598.8848,381.1794 478.287,260.5816 252.336,260.6223 C 213.354,260.6223 165.7094,308.2669 165.7094,347.2489 L 165.7094,625.2704 C 165.7094,664.2523 213.354,711.897 252.336,711.897 L 512.2158,711.897 C 551.1977,711.897 598.8423,664.2523 598.8423,625.2704 L 598.8423,381.1515 Z M 254.1501,368.3386 496.8267,368.3386 496.8267,459.047 254.1501,459.047 254.1501,368.3386 Z M 424.4457,493.3564 C 462.9524,493.3564 494.4578,524.8619 494.4578,563.3685 494.4578,601.8752 462.9524,633.3806 424.4457,633.3806 385.9391,633.3806 354.4336,601.8752 354.4336,563.3685 354.4336,524.8619 385.9391,493.3564 424.4457,493.3564 Z" style="fill:#CCCCCC;fill-opacity:1;stroke:#000000;stroke-width:1;stroke-opacity:1;stroke-linecap:butt;stroke-miterlimit:4;stroke-dashoffset:0;"/>
</g>
</svg>
