<?xml version="1.0" encoding="UTF-8" standalone="no"?>

<!-- Created by Amal Benny (https://amalbenny.mooo.com/) through PainterSVG V3.86 -->

<svg  xmlns="http://www.w3.org/2000/svg" xmlns:xlink="http://www.w3.org/1999/xlink" xmlns:psvg="http://www.paintersvg.com/namespace.html" id="svg"  width="793.6992" height="1122.5175" viewBox="0 0 793.6992 1122.5175">
<defs></defs>
<g psvg:layer="layer1">
<g id="group18">
<path id="path2" d=" M 268.5136,327.4897 Q 238.4491,363.7834 213.0778,407.8982 L 559.4411,410.2469 Q 536.9226,364.9277 504.307,326.2661 384.4849,318.0212 268.5136,327.4897 Z" style="fill:#D0D0D0;fill-opacity:1;stroke:#000000;stroke-width:2;stroke-opacity:1;stroke-linecap:butt;stroke-miterlimit:4;stroke-dashoffset:0;"/>
<path id="path3" d=" M 208.4052,385.7381 C 207.3953,411.3158 200.6749,414.6993 196.2121,416.3276 Q 162.7347,418.2528 162.093,403.4928 158.6418,390.978 173.9651,385.5242 C 187.2246,382.5181 191.3301,382.338 208.4052,385.7381 Z" style="fill:#D0D0D0;fill-opacity:1;stroke:#000000;stroke-width:2;stroke-opacity:1;stroke-linecap:butt;stroke-miterlimit:4;stroke-dashoffset:0;"/>
<path d=" M 562.1595,385.2844 C 563.1694,410.8621 569.8898,414.2457 574.3525,415.8739 Q 607.8299,417.7991 608.4717,403.0391 611.9228,390.5243 596.5995,385.0705 C 583.3401,382.0644 579.2345,381.8843 562.1595,385.2844 Z" style="fill:#D0D0D0;fill-opacity:1;stroke:#000000;stroke-width:2;stroke-opacity:1;stroke-linecap:butt;stroke-miterlimit:4;stroke-dashoffset:0;"/>
<path id="path5" d=" M 527.2219,624.8537 Q 511.6145,589.5825 478.9083,582.0623 L 290.8246,581.3231 C 276.9184,583.1227 262.3892,597.9944 240.1194,625.9469 Z" style="fill:#D0D0D0;fill-opacity:1;stroke:#000000;stroke-width:2;stroke-opacity:1;stroke-linecap:butt;stroke-miterlimit:4;stroke-dashoffset:0;"/>
<path id="path6" d=" M 230.6044,634.2826 230.701,650.9955 Q 230.7289,656.0072 225.2135,657.6491 L 170.32,657.6801 Q 157.6963,658.7858 158.5379,652.09 158.3451,635.8649 158.5869,623.0514 C 177.8345,634.5877 202.3977,632.6671 230.6044,634.2826 Z" style="fill:#D0D0D0;fill-opacity:1;stroke:#000000;stroke-width:2;stroke-opacity:1;stroke-linecap:butt;stroke-miterlimit:4;stroke-dashoffset:0;"/>
<path d=" M 542.3114,633.6825 542.2148,650.3954 Q 542.1869,655.4071 547.7023,657.049 L 602.5958,657.08 Q 615.2195,658.1857 614.3778,651.4899 614.5707,635.2648 614.3289,622.4513 C 595.0813,633.9876 570.518,632.067 542.3114,633.6825 Z" style="fill:#D0D0D0;fill-opacity:1;stroke:#000000;stroke-width:2;stroke-opacity:1;stroke-linecap:butt;stroke-miterlimit:4;stroke-dashoffset:0;"/>
<path id="path4" d=" M 355.3818,572.3505 C 276.311,576.954 288.1153,555.7538 231.0705,626.4019 L 182.0675,622.8523 Q 161.3963,620.7114 157.1565,607.6082 L 157.8482,477.8054 176.682,455.2642 Q 174.9853,435.9833 207.5142,417.15 L 361.9523,418.138 564.1264,417.6436 C 585.0162,434.3894 590.2532,429.0835 595.8153,453.4529 L 614.1708,478.1891 616.1233,603.9455 Q 614.0755,617.5609 600.4138,621.6177 L 539.0151,625.6542 C 525.0447,609.7852 516.7344,577.7455 471.5315,573.1514 L 355.3819,572.3505 Z M 522.4522,528.3826 Q 527.5657,541.6631 579.3902,517.3361 611.8226,508.5943 608.0054,478.9865 592.6797,458.346 586.0947,462.0001 C 572.4624,469.3343 554.3587,472.5317 538.6697,485.1006 531.3074,492.7167 520.5658,493.0309 522.4522,528.3826 Z M 250.3851,529.2697 C 252.2715,493.918 241.5299,493.6038 234.1677,485.9877 218.4786,473.4188 200.3749,470.2214 186.7426,462.8872 Q 180.1576,459.2331 164.832,479.8736 161.0147,509.4814 193.4471,518.2232 245.2717,542.5502 250.3851,529.2697 Z M 267.0567,489.0642 Q 255.9448,493.2412 265.0435,518.2306 C 271.9007,560.5602 499.733,561.5968 507.0041,525.6729 Q 522.0988,497.3209 508.0364,490.2177 L 267.0567,489.0642 Z" style="fill:#CCCCCC;fill-opacity:1;stroke:#000000;stroke-width:2;stroke-opacity:1;stroke-linecap:butt;stroke-miterlimit:4;stroke-dashoffset:0;"/>
<g id="group17">
<g id="group15" transform="matrix(1,0,0,1,154.2571,257.0112)">
<path id="path9" d=" M 234.3061,248.0148 C 215.0687,248.0148 199.329,254.688 199.329,262.8441 199.329,271.0002 215.0687,277.6733 234.3061,277.6733 253.5435,277.6733 269.2832,271.0002 269.2832,262.8441 269.2832,254.688 253.5435,248.0148 234.3061,248.0148 Z" style="fill:#D0D0D0;fill-opacity:1;stroke:#000000;stroke-width:1;stroke-opacity:1;stroke-linecap:butt;stroke-miterlimit:4;stroke-dashoffset:0;"/>
<path id="path13" d=" M 180.3031,255.4431 288.1536,255.4431 C 292.5942,255.4431 296.2275,259.8838 296.2275,263.5171 L 296.2275,263.5171 C 296.2275,267.1503 291.7868,271.591 288.1536,271.591 L 180.3031,271.591 C 176.6698,271.591 172.2292,267.1503 172.2292,263.5171 L 172.2292,263.5171 C 172.2292,259.8838 176.6698,255.4431 180.3031,255.4431 Z" style="fill:#D0D0D0;fill-opacity:1;stroke:#000000;stroke-width:1;stroke-opacity:1;stroke-linecap:butt;stroke-miterlimit:4;stroke-dashoffset:0;"/>
</g>
<text id="text10" style="fill:#CCCCCC;fill-opacity:1;stroke:#040404;stroke-width:1;stroke-opacity:1;stroke-linecap:butt;stroke-miterlimit:4;stroke-dashoffset:0;" transform="matrix(0.2861,0,0,0.2861,298.2427,462.9495)" x="212.2435" y="212.2884" font-family="ComingSoon" font-size="40" font-style="normal" text-align="left">✓ icon-lab</text></g>
</g>
</g>
</svg>
