<?xml version="1.0" encoding="UTF-8" standalone="no"?>

<!-- Created with PainterSVG V3.86 -->

<svg  xmlns="http://www.w3.org/2000/svg" xmlns:xlink="http://www.w3.org/1999/xlink" xmlns:psvg="http://www.paintersvg.com/namespace.html" id="svg"  width="793.6992" height="1122.5175" viewBox="0 0 793.6992 1122.5175">
<defs></defs>
<g psvg:layer="layer1">
<g id="group6" transform="matrix(-1,0,0,1,715.536,0)">
<path d=" M 305.4846,340.4993 305.4846,746.4373 C 310.2625,744.9398 314.4987,742.6526 317.5833,739.568 L 486.6346,570.5168 C 498.5676,558.5837 501.2194,532.066 486.6347,517.4812 L 315.9201,346.7667 C 313.1957,344.0424 309.573,341.94 305.4621,340.4596 Z" style="fill:#CCCCCC;fill-opacity:1;stroke:#000000;stroke-width:1;stroke-opacity:1;stroke-linecap:butt;stroke-miterlimit:4;stroke-dashoffset:0;"/>
<path d=" M 214.339,339.4555 214.339,745.3934 C 219.1169,743.896 223.3532,741.6088 226.4377,738.5243 L 395.489,569.473 C 407.422,557.54 410.0738,531.0222 395.4891,516.4375 L 224.7745,345.7229 C 222.0501,342.9986 218.4275,340.8963 214.3166,339.4159 Z" style="fill:#CCCCCC;fill-opacity:1;stroke:#000000;stroke-width:1;stroke-opacity:1;stroke-linecap:butt;stroke-miterlimit:4;stroke-dashoffset:0;"/>
</g>
</g>
</svg>
