<?xml version="1.0" encoding="UTF-8" standalone="no"?>

<!-- Created with PainterSVG V3.86 -->

<svg  xmlns="http://www.w3.org/2000/svg" xmlns:xlink="http://www.w3.org/1999/xlink" xmlns:psvg="http://www.paintersvg.com/namespace.html" id="svg"  width="793.6992" height="1122.5175" viewBox="0 0 793.6992 1122.5175">
<defs></defs>
<g psvg:layer="layer1">
<g id="group6" transform="matrix(1,0,0,1,-109.4014,157.5745)">
<path d=" M 414.886,182.9248 414.886,588.8628 C 419.6639,587.3653 423.9001,585.0781 426.9847,581.9935 L 596.036,412.9423 C 607.969,401.0092 610.6208,374.4915 596.0361,359.9067 L 425.3215,189.1922 C 422.5971,186.4679 418.9744,184.3655 414.8635,182.8851 Z" style="fill:#CCCCCC;fill-opacity:1;stroke:#000000;stroke-width:1;stroke-opacity:1;stroke-linecap:butt;stroke-miterlimit:4;stroke-dashoffset:0;"/>
<path d=" M 323.7404,181.881 323.7404,587.819 C 328.5183,586.3215 332.7546,584.0343 335.8391,580.9498 L 504.8904,411.8985 C 516.8234,399.9655 519.4752,373.4477 504.8905,358.863 L 334.1759,188.1484 C 331.4515,185.4241 327.8289,183.3218 323.718,181.8414 Z" style="fill:#CCCCCC;fill-opacity:1;stroke:#000000;stroke-width:1;stroke-opacity:1;stroke-linecap:butt;stroke-miterlimit:4;stroke-dashoffset:0;"/>
</g>
</g>
</svg>
