<?xml version="1.0" encoding="UTF-8" standalone="no"?>

<!-- Created by Amal Benny through PainterSVG V3.86 -->

<svg  xmlns="http://www.w3.org/2000/svg" xmlns:xlink="http://www.w3.org/1999/xlink" xmlns:psvg="http://www.paintersvg.com/namespace.html" id="svg"  width="793.6992" height="1122.5175" viewBox="0 0 793.6992 1122.5175">
<defs></defs>
<g psvg:layer="layer1">
<g id="group13">
<g id="group8">
<path d=" M 101.6676,429.7528 146.5661,474.6541 101.8947,519.3229 C 106.1037,527.9784 116.0231,535.8966 124.5028,535.8966 L 274.9043,535.8966 C 286.0033,535.8966 299.569,522.331 299.569,511.2318 L 299.569,437.2377 C 299.569,426.1384 288.4699,412.5728 274.9043,412.5728 L 124.5028,412.5728 C 115.8456,412.5728 105.6876,420.8262 101.6372,429.7247 Z" style="fill:#CCCCCC;fill-opacity:1;stroke:#000000;stroke-width:1;stroke-opacity:1;stroke-linecap:butt;stroke-miterlimit:4;stroke-dashoffset:0;"/>
<g id="group7" transform="matrix(1,0,0,1,-52.7762,304.5842)">
<path d=" M 243.681,131.2881 276.136,160.2658" style="fill:none;stroke:#000000;stroke-width:1;stroke-opacity:1;stroke-linecap:butt;stroke-miterlimit:4;stroke-dashoffset:0;"/>
<path d=" M 276.6287,174.0222 244.1736,202.9999" style="fill:none;stroke:#000000;stroke-width:1;stroke-opacity:1;stroke-linecap:butt;stroke-miterlimit:4;stroke-dashoffset:0;"/>
<g id="group6" transform="matrix(1,0,0,1,11.3622,-178.0372)">
<path id="path3" d=" M 189.5599,311.2941 222.0149,340.2719" style="fill:none;stroke:#000000;stroke-width:1;stroke-opacity:1;stroke-linecap:butt;stroke-miterlimit:4;stroke-dashoffset:0;"/>
<path d=" M 222.5076,350.0906 190.0526,379.0683" style="fill:none;stroke:#000000;stroke-width:1;stroke-opacity:1;stroke-linecap:butt;stroke-miterlimit:4;stroke-dashoffset:0;"/>
</g>
<g transform="matrix(1,0,0,1,11.3622,-178.0372)">
<path d=" M 276.3992,313.474 308.8544,342.4518" style="fill:none;stroke:#000000;stroke-width:1;stroke-opacity:1;stroke-linecap:butt;stroke-miterlimit:4;stroke-dashoffset:0;"/>
<path d=" M 309.3459,352.2704 276.8908,381.2482" style="fill:none;stroke:#000000;stroke-width:1;stroke-opacity:1;stroke-linecap:butt;stroke-miterlimit:4;stroke-dashoffset:0;"/>
</g>
</g>
</g>
<path id="path10" d=" M 298.4531,463.6912 668.4531,463.6912 668.4531,493.6912 298.4531,493.6912 298.4531,463.6912 Z" style="fill:#CCCCCC;fill-opacity:1;stroke:#000000;stroke-width:1;stroke-opacity:1;stroke-linecap:butt;stroke-miterlimit:4;stroke-dashoffset:0;"/>
<path d=" M 668.99,423.5865 668.99,542.1776 C 676.065,544.3917 685.4888,543.3221 690.1133,538.8277 L 732.002,498.1171 C 738.2852,492.0106 739.8583,478.2637 732.3947,470.584 L 690.4119,427.3864 C 685.8318,422.6739 676.1688,421.3744 668.9728,423.5954 Z" style="fill:#CCCCCC;fill-opacity:1;stroke:#000000;stroke-width:1;stroke-opacity:1;stroke-linecap:butt;stroke-miterlimit:4;stroke-dashoffset:0;"/>
</g>
</g>
</svg>
