<?xml version="1.0" encoding="UTF-8" standalone="no"?>

<!-- Created by Amal Benny through PainterSVG V3.86 -->

<svg  xmlns="http://www.w3.org/2000/svg" xmlns:xlink="http://www.w3.org/1999/xlink" xmlns:psvg="http://www.paintersvg.com/namespace.html" id="svg"  width="793.6992" height="1122.5175" viewBox="0 0 793.6992 1122.5175">
<defs></defs>
<g psvg:layer="layer1">
<path id="path9" d=" M 54.2609,836.3597 708.7607,836.3597 708.7607,876.0447 54.2609,876.0447 54.2609,836.3597 Z" style="fill:#CCCCCC;fill-opacity:1;stroke:#000000;stroke-width:1;stroke-opacity:1;stroke-linecap:butt;stroke-miterlimit:4;stroke-dashoffset:0;"/>
<g id="group14" transform="matrix(1,0,0,1,16.7955,21.9633)">
<path d=" M 616.4905,697.9812 C 670.3417,685.8557 709.5762,650.4806 709.5762,609.0249 709.5762,567.5692 670.3417,532.1941 616.4905,520.0685 L 616.4271,479.294 C 695.8018,489.7348 756.7832,544.1963 756.7832,609.2838 756.7832,674.3713 695.8018,728.8328 616.4629,739.2738 L 616.4629,697.9396 Z" style="fill:#CCCCCC;fill-opacity:1;stroke:#000000;stroke-width:1;stroke-opacity:1;stroke-linecap:butt;stroke-miterlimit:4;stroke-dashoffset:0;" transform="matrix(1,0,0,1,-80.2105,-21.5452)"/>
<path d=" M 654.1943,455.81 253.9361,455.81 253.9838,750.6127 C 253.9838,778.1654 287.6593,811.8409 315.212,811.8409 L 593.0067,811.8409 C 620.5594,811.8409 654.2349,778.1654 654.2349,750.6127 L 654.2349,455.7764 Z" style="fill:#CCCCCC;fill-opacity:1;stroke:#000000;stroke-width:1;stroke-opacity:1;stroke-linecap:butt;stroke-miterlimit:4;stroke-dashoffset:0;" transform="matrix(1,0,0,1,-80.2105,-21.5452)"/>
<path id="path11" d=" M 373.3715,401.0921 C 264.0316,401.0921 174.5717,415.3808 174.5717,432.8448 174.5717,450.3088 264.0316,464.5975 373.3715,464.5975 482.7113,464.5975 572.1713,450.3088 572.1713,432.8448 572.1713,415.3808 482.7113,401.0921 373.3715,401.0921 Z" style="fill:#CCCCCC;fill-opacity:1;stroke:#000000;stroke-width:1;stroke-opacity:1;stroke-linecap:butt;stroke-miterlimit:4;stroke-dashoffset:0;"/>
</g>
</g>
</svg>
